#!OML:ASF E:\Steps\Project 1\Capture day 1\Session 2\Subject.ASF
:FULLY-SPECIFIED
:DEGREES
211
root -1.1241 17.9687 20.6691 -152.232 -11.7332 177.617
lowerback -25.1748 0.491995 -7.81192
upperback -1.66169 2.54741 -1.44169
thorax 11.9331 0.590532 3.6832
lowerneck -7.46074 5.78614 4.94922
upperneck -2.73134 7.14621 -2.97853
head 0.701147 3.41876 -1.54651
rclavicle 2.8128e-014 -1.35174e-014
rhumerus -41.5616 -10.2557 -84.6302
rradius 36.2546
rwrist -18.4737
rhand 2.13167 -62.8333
rfingers 7.12502
rthumb 27.6305 810.824
lclavicle 2.8128e-014 -1.35174e-014
lhumerus -28.4489 -4.52939 85.9346
lradius 26.8064
lwrist 1.37787
lhand -22.1755 -12.1084
lfingers 7.12502
lthumb 4.23934 17.8291
rfemur -23.6505 3.35205 20.4351
rtibia 6.1932
rfoot -18.8495 -7.93843
rtoes -13.8885
lfemur -25.9436 -8.55162 -22.2649
ltibia 7.22775
lfoot -4.5867 -9.56813
ltoes -27.2617
212
root -1.12845 17.9679 20.6667 -152.304 -11.6622 177.691
lowerback -25.1372 0.460271 -7.72203
upperback -1.66796 2.47539 -1.43202
thorax 11.9174 0.563046 3.61755
lowerneck -7.503 5.7686 4.95562
upperneck -2.4819 7.13385 -3.05944
head 0.79124 3.41766 -1.56956
rclavicle -2.15681e-014 -4.45278e-014
rhumerus -41.571 -10.4047 -84.6075
rradius 36.2608
rwrist -18.1999
rhand 1.35588 -61.6901
rfingers 7.12502
rthumb 26.8884 990.202
lclavicle -2.15681e-014 -4.45278e-014
lhumerus -28.5392 -4.34084 85.8174
lradius 26.5565
lwrist 1.17775
lhand -22.3963 -11.9477
lfingers 7.12502
lthumb 4.02608 17.994
rfemur -23.5531 3.49935 20.4782
rtibia 6.1665
rfoot -18.854 -7.99914
rtoes -14.0803
lfemur -25.8557 -8.5127 -22.2209
ltibia 7.22298
lfoot -4.58832 -9.46197
ltoes -27.5617
213
root -1.13061 17.9697 20.6656 -152.323 -11.5776 177.684
lowerback -25.1141 0.425663 -7.74035
upperback -1.67496 2.43143 -1.43697
thorax 11.9011 0.542236 3.60666
lowerneck -7.42548 5.9716 5.2375
upperneck -2.21255 7.40444 -3.24348
head 0.895886 3.55696 -1.6646
rclavicle 3.47873e-014 -4.45278e-014
rhumerus -41.562 -10.4254 -84.64
rradius 36.2964
rwrist -18.2234
rhand 2.58709 -63.7027
rfingers 7.12502
rthumb 28.0659 811.623
lclavicle 3.47873e-014 -4.45278e-014
lhumerus -28.5822 -4.26123 85.7502
lradius 26.2869
lwrist 0.997639
lhand -22.2694 -12.0617
lfingers 7.12502
lthumb 4.14864 17.8777
rfemur -23.4974 3.45157 20.4515
rtibia 6.07194
rfoot -18.7847 -7.88978
rtoes -13.9948
lfemur -25.8286 -8.37195 -22.2792
ltibia 7.21422
lfoot -4.55584 -9.51537
ltoes -27.705
214
root -1.13723 17.9731 20.6673 -152.322 -11.5464 177.657
lowerback -25.0863 0.423738 -7.7017
upperback -1.67483 2.41702 -1.44797
thorax 11.8901 0.538709 3.56654
lowerneck -7.64208 5.7662 5.06135
upperneck -2.04853 7.13591 -3.1657
head 0.963023 3.42497 -1.61266
rclavicle -1.94809e-014 5.1684e-015
rhumerus -41.5838 -10.5067 -84.6081
rradius 36.4162
rwrist -18.1956
rhand 2.83543 -64.2735
rfingers 7.12502
rthumb 28.3033 812.155
lclavicle -1.94809e-014 5.1684e-015
lhumerus -28.5682 -4.47538 85.7998
lradius 26.0312
lwrist 1.00206
lhand -21.8827 -12.2132
lfingers 7.12502
lthumb 4.522 17.7185
rfemur -23.431 3.29629 20.425
rtibia 5.93853
rfoot -18.6994 -7.70681
rtoes -13.7065
lfemur -25.8345 -8.32523 -22.3605
ltibia 7.25834
lfoot -4.59915 -9.59818
ltoes -26.808
215
root -1.14682 17.9747 20.6686 -152.367 -11.5446 177.693
lowerback -25.0097 0.433989 -7.53638
upperback -1.68389 2.37853 -1.45276
thorax 11.8498 0.532968 3.45197
lowerneck -7.70741 5.62926 4.97399
upperneck -1.92133 6.9624 -3.14797
head 1.00344 3.3411 -1.59597
rclavicle -3.28989e-014 3.57812e-014
rhumerus -41.644 -10.5788 -84.5594
rradius 36.5442
rwrist -18.0058
rhand 2.94155 -64.6227
rfingers 7.12502
rthumb 28.4047 812.487
lclavicle -3.28989e-014 3.57812e-014
lhumerus -28.5495 -4.59417 85.8052
lradius 25.732
lwrist 0.973917
lhand -21.5955 -12.1529
lfingers 7.12502
lthumb 4.79936 17.7727
rfemur -23.3967 3.14297 20.4932
rtibia 6.01022
rfoot -18.7131 -7.55292
rtoes -13.8365
lfemur -25.7701 -8.39519 -22.3673
ltibia 7.2573
lfoot -4.64649 -9.55418
ltoes -25.8688
216
root -1.14972 17.9747 20.6691 -152.333 -11.5124 177.706
lowerback -24.9763 0.376946 -7.50276
upperback -1.73637 2.27939 -1.43276
thorax 11.7819 0.490221 3.42039
lowerneck -7.7841 5.50595 4.81575
upperneck -1.71175 6.81659 -3.10558
head 1.0695 3.27345 -1.55696
rclavicle -1.70955e-014 1.90833e-014
rhumerus -41.6945 -10.6821 -84.421
rradius 36.6766
rwrist -17.4806
rhand 3.06669 -64.615
rfingers 7.12502
rthumb 28.5243 812.46
lclavicle -1.70955e-014 1.90833e-014
lhumerus -28.5431 -4.45713 85.7193
lradius 25.3666
lwrist 0.823392
lhand -21.5092 -11.9165
lfingers 7.12502
lthumb 4.88266 18.0072
rfemur -23.4833 3.11215 20.5166
rtibia 6.12632
rfoot -18.7432 -7.54063
rtoes -14.1862
lfemur -25.8032 -8.38916 -22.3672
ltibia 7.25446
lfoot -4.64555 -9.56004
ltoes -25.1432
